<svg width="128" height="128" viewBox="0 0 128 128" xmlns="http://www.w3.org/2000/svg"><g fill="none" fill-rule="evenodd"><rect fill="#34A5FF" width="128" height="128"/><path d="M74.9724845,24 C81.5982895,24.0041281 86.9702045,29.3741957 86.9766115,35.9999989 L86.9766115,35.9999989 L86.9958726,92.0000011 C86.9999998,92.0013754 87,92.0027512 87,92.004127 C87,98.6315438 81.6274172,104.004127 75.0000004,104 L75.0000004,104 L41.5,104 C40.9477152,104 40.5,103.552285 40.5,103 L40.5,103 L40.5,94 C40.5,93.4477152 40.9477152,93 41.5,93 L41.5,93 L44.4999839,93 C46.709114,93 48.4999678,91.2091462 48.4999678,89.0000161 L48.4999678,89.0000161 L48.4999678,39.7499839 C48.4999678,37.1266402 46.3733275,35 43.7499839,35 L43.7499839,35 L40,35 C39.4477152,35 39,34.5522848 39,34 L39,34 L39,25 C39,24.4477152 39.4477152,24 40,24 L40,24 Z M69.4998797,33.9999994 L61.999927,33.9999994 C61.1714999,33.9999994 60.499927,34.6715723 60.499927,35.4999994 L60.499927,35.4999994 L60.499927,90.4999995 C60.499927,91.3284266 61.1714999,91.9999994 61.999927,91.9999994 L61.999927,91.9999994 L69.4998797,91.9999994 C72.2613034,91.9999994 74.4998795,89.7614232 74.4998795,86.9999996 L74.4998795,86.9999996 L74.4998795,38.9999993 C74.4998795,36.2385756 72.2613034,33.9999994 69.4998797,33.9999994 L69.4998797,33.9999994 Z" fill="#FFF"/></g></svg>