<svg width="640" height="400" viewBox="0 0 640 400" xmlns="http://www.w3.org/2000/svg">
  <path
    d="M334.766766,0 C336.823122,0.56399325 338.898888,1.07956844 340.977204,1.58964392 L343.471329,2.20184141 C348.042179,3.32943522 352.592732,4.51350031 356.943467,6.21103118 C381.260375,15.6954436 405.441524,25.5555556 429.578751,35.4756195 C467.599375,51.1031175 505.612014,66.7266187 543.496879,82.6698641 C566.619903,92.4020783 588.38134,104.560352 607.315786,121.306954 C629.093195,140.567546 639.335046,164.980016 639.945963,193.808953 C640.289354,209.88809 639.09547,225.711431 633.481419,240.939249 C625.459634,262.717826 611.891677,279.820144 591.955007,292.094325 C575.061661,302.495235 557.00298,310.286782 538.829291,317.8868 L535.621189,319.226483 C534.016755,319.895823 532.411907,320.564779 530.807366,321.235012 C474.303495,344.840128 417.871497,368.633094 361.243846,391.958433 C352.675031,395.483613 343.223779,396.870504 334.187792,399.260592 C333.433129,399.464428 332.690445,399.748201 331.947761,400 L317.852739,400 C317.44546,399.792166 317.066133,399.516387 316.642883,399.40048 C309.335831,397.342126 301.757261,395.971223 294.753672,393.165468 C232.779496,368.393285 170.95705,343.23741 108.974888,318.473221 C87.716559,309.976019 66.9174168,300.835332 47.6435717,288.221423 C24.3967669,273.001599 9.13581059,252.54996 3.25423323,225.291767 C2.02441257,219.592326 1.07409661,213.844924 0,208.113509 L0,186.95044 C0.726712206,183.053557 1.34960838,179.136691 2.19610831,175.267786 C8.25736726,147.54996 21.6456421,124.732214 45.8906779,108.91287 C60.0895164,99.6522782 74.8833006,91.598721 90.6313937,85.3956835 C145.098873,63.9328537 199.598295,42.54996 254.133654,21.2509992 C269.390618,15.2917666 284.735425,9.51239009 300.188042,4.07673861 C305.854001,2.07833733 311.951197,1.32294165 317.856732,0 L334.766766,0 L334.766766,0 Z M364.71247,75 L252.8,75 L252.618413,75.0050656 C250.935586,75.099204 249.6,76.4936306 249.6,78.2 L249.6,78.2 L249.6,106.175 L249.605066,106.356587 C249.699204,108.039414 251.093631,109.375 252.8,109.375 L252.8,109.375 L264.8,109.375 L265.114047,109.37818 C273.363797,109.54538 280,116.285206 280,124.575 L280,124.575 L280,277.825 L279.996402,278.131502 C279.83361,285.05915 274.166792,290.625 267.2,290.625 L267.2,290.625 L257.6,290.625 L257.418413,290.630066 C255.735586,290.724204 254.4,292.118631 254.4,293.825 L254.4,293.825 L254.4,321.8 L254.405066,321.981587 C254.499204,323.664414 255.893631,325 257.6,325 L257.6,325 L364.800521,325 L365.435535,324.995257 C386.350382,324.669275 403.200521,307.609179 403.200521,286.613522 C403.200521,286.609014 403.20052,286.604506 403.186997,286.600002 L403.186997,286.600002 L403.125995,113.399998 L403.120227,112.765143 C402.760797,91.8555874 385.702898,75.0133918 364.71247,75 L364.71247,75 Z M347.2,106.25 C356.036556,106.25 363.2,113.413444 363.2,122.25 L363.2,122.25 L363.2,271.5 L363.196964,271.814871 C363.029205,280.506099 355.931359,287.5 347.2,287.5 L347.2,287.5 L323.2,287.5 L322.986189,287.495323 C320.434439,287.383469 318.4,285.279319 318.4,282.7 L318.4,282.7 L318.4,111.05 L318.404677,110.836189 C318.516531,108.284439 320.620681,106.25 323.2,106.25 L323.2,106.25 Z"
    opacity=".06"
    fill="currentColor"
    fill-rule="evenodd"
  />
</svg>
