<svg width="64" height="40" viewBox="0 0 64 40" xmlns="http://www.w3.org/2000/svg">
  <g fill="none" fill-rule="evenodd">
    <path
      d="M33.4766766,0 C34.2169647,0.20303757 34.9824083,0.34332534 35.6943467,0.621103118 C38.1260375,1.56954436 40.5441524,2.55555556 42.9578751,3.54756195 C46.7599375,5.11031175 50.5612014,6.67266187 54.3496879,8.26698641 C56.6619903,9.24020783 58.838134,10.4560352 60.7315786,12.1306954 C62.9093195,14.0567546 63.9335046,16.4980016 63.9945963,19.3808953 C64.0289354,20.988809 63.909547,22.5711431 63.3481419,24.0939249 C62.5459634,26.2717826 61.1891677,27.9820144 59.1955007,29.2094325 C57.2577346,30.402478 55.1666402,31.2521982 53.0807366,32.1235012 C47.4303495,34.4840128 41.7871497,36.8633094 36.1243846,39.1958433 C35.2675031,39.5483613 34.3223779,39.6870504 33.4187792,39.9260592 C33.3433129,39.9464428 33.2690445,39.9748201 33.1947761,40 L31.7852739,40 C31.744546,39.9792166 31.7066133,39.9516387 31.6642883,39.940048 C30.9335831,39.7342126 30.1757261,39.5971223 29.4753672,39.3165468 C23.2779496,36.8393285 17.095705,34.323741 10.8974888,31.8473221 C8.7716559,30.9976019 6.69174168,30.0835332 4.76435717,28.8221423 C2.43967669,27.3001599 0.913581059,25.254996 0.325423323,22.5291767 C0.202441257,21.9592326 0.107409661,21.3844924 0,20.8113509 L0,18.695044 C0.0726712206,18.3053557 0.134960838,17.9136691 0.219610831,17.5267786 C0.825736726,14.754996 2.16456421,12.4732214 4.58906779,10.891287 C6.00895164,9.96522782 7.48833006,9.1598721 9.06313937,8.53956835 C14.5098873,6.39328537 19.9598295,4.254996 25.4133654,2.12509992 C26.9390618,1.52917666 28.4735425,0.951239009 30.0188042,0.407673861 C30.5854001,0.207833733 31.1951197,0.132294165 31.7856732,0 C32.3490748,0 32.9128757,0 33.4766766,0 Z"
      fill="#34A5FF"
    />
    <path
      d="M36.471247,7.5 C38.5914923,7.5013527 40.3105,9.21975508 40.3125995,11.3399998 L40.3125995,11.3399998 L40.3186997,28.6600002 C40.320052,28.6604506 40.3200521,28.6609014 40.3200521,28.6613522 C40.3200521,30.7821257 38.6008256,32.5013522 36.4800521,32.5 L36.4800521,32.5 L25.76,32.5 C25.5832689,32.5 25.44,32.3567311 25.44,32.18 L25.44,32.18 L25.44,29.3825 C25.44,29.2057689 25.5832689,29.0625 25.76,29.0625 L25.76,29.0625 L26.72,29.0625 C27.4269245,29.0625 28,28.4894245 28,27.7825 L28,27.7825 L28,12.4575 C28,11.6180272 27.3194728,10.9375 26.48,10.9375 L26.48,10.9375 L25.28,10.9375 C25.1032689,10.9375 24.96,10.7942311 24.96,10.6175 L24.96,10.6175 L24.96,7.82 C24.96,7.64326888 25.1032689,7.5 25.28,7.5 L25.28,7.5 Z M34.72,10.625 L32.32,10.625 C32.0549033,10.625 31.84,10.8399033 31.84,11.105 L31.84,11.105 L31.84,28.27 C31.84,28.5350967 32.0549033,28.75 32.32,28.75 L32.32,28.75 L34.72,28.75 C35.6036556,28.75 36.32,28.0336556 36.32,27.15 L36.32,27.15 L36.32,12.225 C36.32,11.3413444 35.6036556,10.625 34.72,10.625 L34.72,10.625 Z"
      fill="#FFF"
    />
  </g>
</svg>
