<svg width="101px" height="27px" viewBox="0 0 101 27" version="1.1" xmlns="http://www.w3.org/2000/svg">
  <path
    d="M94.9461,23.5385 L94.9461,12.021 C94.9461,11.2028 94.6303,10.5734 93.9986,10.1958 C93.3669,9.8182 92.6088,9.62939 91.6612,9.62939 C91.219,9.62939 90.7768,9.69233 90.3346,9.75526 C89.8924,9.8182 89.5766,9.88114 89.2607,10.007 L89.2607,23.5385 L84.207,23.5385 L84.207,8.05596 C85.0914,7.74128 86.2285,7.42659 87.5551,7.23778 C88.8817,6.98603 90.3346,6.9231 91.8507,6.9231 C94.5039,6.9231 96.5254,7.36366 97.9784,8.18184 C99.3681,9.00002 100.063,10.3217 100.063,12.021 L100.063,23.6014 L94.9461,23.6014 L94.9461,23.5385 Z M50.0312,23.5385 L50.0312,7.11188 C51.7369,7.11188 53.4425,7.17481 55.0849,7.42656 L55.0849,23.6014 L50.0312,23.6014 L50.0312,23.5385 Z M55.3371,2.70627 C55.3371,3.2727 55.0844,3.83913 54.5159,4.21676 C53.9473,4.65731 53.3156,4.84613 52.4944,4.84613 C51.7363,4.84613 51.0414,4.65731 50.5361,4.21676 C49.9675,3.7762 49.7148,3.2727 49.7148,2.70627 C49.7148,2.13983 49.9675,1.5734 50.5361,1.19578 C51.1046,0.755217 51.7363,0.566406 52.4944,0.566406 C53.2524,0.566406 53.9473,0.755217 54.5159,1.19578 C55.0844,1.63634 55.3371,2.13983 55.3371,2.70627 Z M46.8734,10.1329 C46.1785,9.94408 45.4204,9.81821 44.6624,9.75527 C43.8412,9.75527 43.2095,9.81821 42.7041,10.07 L42.7041,23.6014 L37.6504,23.6014 L37.6504,8.05597 C38.598,7.67835 39.6719,7.36366 40.9353,7.17485 C42.1987,6.98604 43.7148,6.86017 45.5468,6.86017 C45.9258,6.86017 46.368,6.86017 46.8102,6.86017 C47.2524,6.86017 47.6314,6.92311 47.8841,6.92311 L46.8734,10.1329 Z M11.2445,15.1049 C11.2445,14.2867 11.1813,13.5944 11.055,12.9021 C10.9286,12.2098 10.6759,11.6434 10.3601,11.1399 C10.0442,10.6364 9.66519,10.2587 9.15982,9.94406 C8.65445,9.69231 8.08591,9.5035 7.32786,9.5035 C6.38029,9.5035 5.62224,9.62937 5.0537,9.88112 L5.0537,20.5804 C5.24321,20.7063 5.55906,20.7692 5.87492,20.8322 C6.19078,20.8951 6.5698,20.8951 7.07517,20.8951 C8.52811,20.8951 9.53885,20.3916 10.2337,19.3217 C10.9286,18.3147 11.2445,16.8671 11.2445,15.1049 Z M16.4245,14.8531 C16.4245,17.6224 15.6033,19.8252 13.9608,21.3357 C12.3184,22.9091 9.91788,23.6643 6.75932,23.6643 C5.18004,23.6643 3.79027,23.5385 2.65319,23.3496 C1.51611,23.0979 0.631712,22.8462 5.68434189e-14,22.4685 L5.68434189e-14,0 L5.0537,0 L5.0537,7.55245 C5.49589,7.36364 6.00126,7.23776 6.63298,7.11189 C7.26469,6.98601 7.95957,6.92308 8.84397,6.92308 C9.98105,6.92308 10.9918,7.11189 11.9394,7.48951 C12.8869,7.86713 13.7081,8.43357 14.3399,9.12587 C15.0347,9.81818 15.5401,10.6364 15.9191,11.6434 C16.235,12.5874 16.4245,13.6573 16.4245,14.8531 Z M29.6912,9.94408 C29.4385,9.81821 29.1858,9.75527 28.87,9.69234 C28.5541,9.6294 28.1751,9.56646 27.6697,9.56646 C26.2168,9.56646 25.1429,10.07 24.448,11.077 C23.7531,12.0839 23.3741,13.5944 23.3741,15.5455 C23.3741,19.2588 24.7638,21.1469 27.5434,21.1469 C27.9224,21.1469 28.3646,21.0839 28.7436,21.021 C29.1226,20.9581 29.4385,20.8322 29.6912,20.7063 L29.6912,9.94408 Z M34.8081,23.5385 C34.8081,23.5385 26.8485,23.6644 26.0904,23.6644 C24.9533,23.6644 23.8794,23.4756 22.8687,23.0979 C21.9211,22.7203 21.0367,22.2168 20.3419,21.5245 C19.647,20.8322 19.0784,20.014 18.6994,19.07 C18.3204,18.1259 18.1309,16.993 18.1309,15.7972 C18.1309,14.4756 18.3204,13.2168 18.7626,12.1469 C19.1416,11.077 19.7733,10.1329 20.5945,9.31471 C21.4158,8.55947 22.4265,7.9301 23.6899,7.48954 C24.8902,7.04898 26.3431,6.86017 27.9856,6.86017 C29.4385,6.86017 30.7651,6.98604 31.9653,7.17485 C33.1656,7.4266 34.1132,7.55248 34.8081,7.9301 L34.8081,23.5385 Z M79.7227,8.87415 C80.8597,10.6364 81.5546,12.7133 81.6178,14.979 C81.8073,21.4616 76.5641,26.8741 69.9943,27 C66.5831,27.063 63.5508,25.8042 61.3398,23.6644 C65.6355,23.4755 69.3626,21.8392 71.9526,20.3287 C72.2053,20.9581 72.3316,21.2098 72.5843,21.8392 C75.1743,20.7063 77.0063,18.1259 76.9431,15.1049 C76.88,12.9651 75.8692,11.014 74.2899,9.75526 C75.1112,9.50352 77.4485,8.87415 79.7227,8.87415 Z M69.4254,3.46156 C72.7734,3.39863 75.8688,4.72031 78.0798,6.79723 C73.7842,6.98604 70.0571,8.6224 67.4671,10.1329 C67.2144,9.50352 67.088,9.25177 66.8353,8.6224 C64.2453,9.75527 62.4134,12.3357 62.4765,15.3567 C62.5397,17.4965 63.5504,19.4476 65.1297,20.7063 C64.3085,20.9581 61.9712,21.5874 59.697,21.5874 C58.5599,19.8252 57.865,17.7483 57.8019,15.4825 C57.6123,9.00003 62.8556,3.58744 69.4254,3.46156 Z"
    id="Combined-Shape"
    fill="currentColor"
    fill-rule="nonzero"
  ></path>
</svg>
